<svg xmlns="http://www.w3.org/2000/svg" fill="#fff" viewBox=".02 .02 466.1 68.94"><g transform="translate(-90.10495,-390.87567)"><g transform="matrix(1.25,0,0,-1.25,463.60342,404.25742)"><path d="m 0,0 3.4,0 -4.9,-23.2 31.8,0 1.5,7 -18.4,0 1.3,6.1 17.1,0 1.5,7 -17.1,0 1.3,6.1 18.2,0 1.5,7 -35,0 L 0,0 z m 39.1,9.8 -1.5,-7 10.8,0 -5.5,-26.1 13.9,0 5.5,26.1 10.3,0 1.5,7 -35,0 z m -51.3,0 -4.7,-22.1 -.1,0 -6.4,22.1 -23.8,0 -2.1,-9.8 3.5,0 -4.3,-20.2 c .7,0 1.3,0 2,0 3.3,0 6.7,-.1 10,-.4 l 4.4,20.9 .1,0 6.4,-22.2 c 6.4,-1 12.8,-2.5 19.4,-4.5 0,0 .1,0 .1,0 l 7.7,36.3 -12.1,0 z" style="fill:#5b6770;fill-rule:nonzero;stroke:none"/></g><path d="m 233.1,412.6 c -1.8,8.5 -6.8,12.3 -12.5,12.3 -5.7,0 -9.1,-3.9 -7.3,-12.3 1.8,-8.5 6.8,-12.4 12.5,-12.4 5.7,0 9.1,3.9 7.3,12.4 m -5.3,-21.7 c -10.6,0 -16.1,1.8 -20.6,4.6 -5.5,3.4 -9.9,9.2 -11.6,17.2 -2.6,12.3 2.8,21.7 23,21.7 10.6,0 18.4,-2.9 23.8,-7.1 4.1,-3.3 7.1,-8.2 8.5,-14.6 2.6,-12.4 -2.8,-21.7 -23,-21.7 m 124.9,1.1 -43.8,0 -1.9,8.7 13.6,0 -6.9,32.6 17.4,0 6.9,-32.6 12.8,0 1.9,-8.7 z m -174.7,13.9 c -.9,4.1 -3.4,5.4 -9.6,5.4 l -3.5,0 2.3,-10.6 5.3,0 c 5,0 6.3,1.8 5.6,5.2 m 3.1,-13.9 -33.9,0 -2.6,12.3 4.4,0 -6.2,29 17.4,0 2.8,-13.3 13.6,0 c 8.7,0 16.1,-3.6 18.3,-13.7 2.3,-10.8 -3.9,-14.4 -13.9,-14.4 m 107.5,13.3 c -.8,3.9 -3.9,5 -7.6,5 l -6.6,0 2.1,-10 6.3,0 c 4.2,0 6.6,1.3 5.8,4.9 m 1.6,-13.3 -33.8,0 -2.6,12.3 4.4,0 -6.2,29 17.4,0 3.2,-15 4.1,0 c 2.9,0 4.4,1.2 5.2,3.7 l 3.8,11.3 17.6,0 -7.9,-18.8 c 5.3,-.9 9.2,-5.6 10.1,-11.1 1.4,-8.8 -4,-11.4 -15.2,-11.4 m -168.1,-1.1 c -16.5,0 -25.7,4.1 -27.6,13.1 -.5,2.3 -.4,5.3 1.4,7.2 4.5,4.9 23.8,6.8 25.6,9.4 .3,.5 .5,1.1 .3,1.9 -.7,3.3 -4.8,4.2 -8.4,4.2 -2.3,0 -3.7,-.6 -4.6,-1.7 -.9,-1.1 -1,-2.7 -.5,-5 l -17.7,0 c -1.3,7.7 -1.6,14.4 20.8,14.4 18.8,0 27.1,-5.3 28.9,-13.4 .9,-4 -.3,-6.2 -1.6,-7.7 -4.4,-4.9 -23.2,-6.7 -25.3,-9.3 -.4,-.5 -.5,-1.3 -.3,-1.9 .5,-2.1 2.7,-3.5 6.3,-3.5 2.2,0 3.8,.3 4.8,1.1 1.1,.9 1.5,2.3 1.1,4.6 l 17,0 c 1.6,-8.5 -2.7,-13.4 -20.3,-13.4 m 277.6,13.4 c 1.6,-8.5 -2.7,-13.4 -20.3,-13.4 -16.5,0 -25.7,4.1 -27.6,13.1 -.5,2.3 -.4,5.3 1.4,7.2 4.5,4.9 23.8,6.8 25.6,9.4 .3,.5 .5,1.1 .3,1.9 -.7,3.3 -4.8,4.2 -8.4,4.2 -2.3,0 -3.7,-.6 -4.6,-1.7 -.9,-1.1 -1,-2.7 -.5,-5 l -17.7,0 c -1.2,7.1 -1.6,13.4 16.4,14.3 8.9,-2.1 17.7,-3.6 26.5,-4.2 3.9,-2.3 6,-5.4 6.8,-9.1 .8,-4 -.3,-6.2 -1.6,-7.7 -4.4,-4.9 -23.2,-6.8 -25.3,-9.3 -.4,-.5 -.5,-1.3 -.3,-1.9 .5,-2.1 2.7,-3.5 6.3,-3.5 2.2,0 3.8,.3 4.8,1.1 1.1,.9 1.5,2.3 1.1,4.6 l 17,0 z" style="fill:#fff;fill-rule:nonzero;stroke:none"/><g transform="matrix(1.25,0,0,-1.25,413.90255,459.3233)"><path d="m 0,0 c 7.7,7.9 26.3,.8 28.3,.9 1,.1 1.4,1.5 -.5,2.3 -18.5,7.4 -45.7,9.2 -60.7,6.5 -1.6,-.5 -2.2,-1.9 .4,-2.2 2.6,-.3 9.3,-.8 18.8,-3.1 5.3,-1.2 9.2,-2.9 12.5,-4.8 C -.8,-.5 -.4,-.4 0,0" style="fill:#00558c;fill-rule:nonzero;stroke:none"/></g><g transform="matrix(1.25,0,0,-1.25,451.21205,450.5733)"><path d="m 0,0 1.6,7.4 c -29,8.8 -56.8,8.3 -86.1,-2.1 -1.5,-.5 -2,-2.7 1.1,-2.2 4.5,.7 22.7,3.1 38.9,3.2 C -31.5,6.5 -15.7,3.7 -2.5,-.6 -1,-1.1 -.3,-.8 0,0" style="fill:#c8102e;fill-rule:nonzero;stroke:none"/></g></g></svg>