<svg xmlns="http://www.w3.org/2000/svg" xml:space="preserve" viewBox="139.2 28.8 681.6 581.2"><path fill="#FFF" d="M425 571a15 15 0 1 0 0 30 15 15 0 0 0 0-30m0 26.8a12 12 0 0 1-11.8-11.7 11.8 11.8 0 1 1 11.8 11.7m6.1-15.2a5 5 0 0 0-5-5.1h-7.3v17.1h3.2v-7h2.3l3.3 7h3.5l-3.4-7.2a5 5 0 0 0 3.4-4.8m-5 1.9h-4v-3.8h4q1.6.1 1.8 1.9a2 2 0 0 1-1.9 1.9"/><path fill="#FFF" d="M782.6 105.7C745.6 56.9 686.8 30 617 30c-53.9 0-97.8 21.8-133 39.3-21.5 10.7-40 19.9-53.6 19.9-8.5 0-21.7-16.3-28.5-27.8l-2.5-4.4-4.4 2.5a45 45 0 0 0-23.3 37.9 143 143 0 0 0-47.8-8.4c-30.2.2-56.6 19-57.7 19.8a79 79 0 0 0-23.9 27.9c-19.4 6.6-39 24.9-40 25.8a96 96 0 0 1-6.6 6.2 54 54 0 0 1-27 9.3l-5.4.2.5 5.5a88 88 0 0 0 9.8 29.6 61 61 0 0 0 30 22.7 77 77 0 0 1-23.1 11.7 323 323 0 0 1-35.4 7.7l-4.9.8.6 4.9c.7 5.8 3.2 10.2 3.5 10.7 20.5 33.5 64.3 35.2 73 35.2h1.2c3.7.4 9 .2 13.5-.2-4.4 10.5-8.2 24-8.8 26-2.4 10.3-7.3 14.3-7.6 14.5a300 300 0 0 1-23.6 15.5l-4.9 2.9 3.5 4.6c6.7 8.7 20.3 13.6 27.1 15.5.7 10.3 3 22 4.6 29.4a88 88 0 0 0-11.3-.8c-16.9 0-26 5.5-26.3 5.7l-6 3.6 5.3 4.6a86 86 0 0 1 13 15.2l.3.5c8.3 10 10.3 31 10.3 31.2 2.4 32 13.2 51.5 17.7 58.3 7 10.6 20.3 20.5 20.6 20.8a77 77 0 0 0 31.6 13.2l-10.1 4.3-5 2 2.2 4.9c6.1 13.3 22.5 21 25 22a103 103 0 0 0 38.9 9.3h.2c27.4-.2 49.3-21.4 50-22.1 22.8-20.6 35-25.7 55-24.2 12.2 1 23 5.6 35.7 11a193 193 0 0 0 83.2 18.8c126.7 0 233.4-121.8 249.8-231.2l1-5.8H624.2l-1.1 3.7c-.2.6-17.2 58.3-56 58.3-30.8 0-49.9-25-49.9-65 0-52.9 45.5-150.5 110.3-150.5q11.3 0 16.6 7.4c7.7 10.8 6.9 34.3-2.3 61.4l-2.3 6.7H811l1-3.8c17-60.6 6.3-122.2-29.3-169M286 382.7a31 31 0 0 1-12.1-6.8q2.9-2.7 5-5.5c1.1-1.4 2.9-3.6 3.6-3.9l1-.1 1.9 2c3 3.1 7.9 8.5 20 14.5l2.1 1c-7 1.7-12.6 1.3-21.5-1.2"/><path fill="#010101" d="M807 273.3c33.6-120.2-45.4-238.2-190-238.2-87.1 0-149.4 59.2-186.6 59.2-15.2 0-32.9-30.3-32.9-30.3-25.8 14.8-20.2 41.8-20.2 41.8C357 93.9 323.9 94 323.9 94c-28.9.2-54.7 18.8-54.7 18.8-17 12.5-23.2 28-23.2 28-19.2 5.5-40 25.2-40 25.2-5.2 5.1-7.2 6.7-7.2 6.7-12.9 9.7-30 10.3-30 10.3a86 86 0 0 0 9 27.4c12.9 19.4 36.5 23.2 36.5 23.2s-12 12.6-32.3 18.8c-15 4.6-36.1 8-36.1 8 .6 5 2.8 8.7 2.8 8.7 21.2 34.7 70 32.7 70 32.7 8.3 1 22.4-1.4 22.4-1.4-6 8.3-13 33.5-13 33.5-2.9 12.5-9.2 17.3-9.2 17.3-6.6 5.3-24.2 15.9-24.2 15.9 7.7 10 28 14.6 28 14.6.3 16.5 6.4 39.7 6.4 39.7-27.5-5.8-41.8 3-41.8 3 8 6.9 14 16.2 14 16.2 9.4 11.5 11.4 34.1 11.4 34.1 2 27 10.3 46 16.9 56s19.6 19.6 19.6 19.6c9 7.5 25.6 11.3 25.6 11.3 11.5 3.2 22.4.8 22.4.8a145 145 0 0 1-28 14c5.8 12.5 22.6 19.7 22.6 19.7 13.7 7.7 37 8.7 37 8.7 25.5-.2 46.5-20.8 46.5-20.8 22.6-20.5 36.5-27.2 58.8-25.5 32.8 2.5 55.7 29.8 118.5 29.8 126.6 0 229-121.2 244.8-226.8H628.1s-17.7 62-61 62c-33 0-54.9-26.7-54.9-70 0-56.7 47.3-155.7 115.4-155.7 31.9 0 31.7 38.6 19.2 75.5zM284.5 387.6c-12.8-3.8-18.6-13-18.6-13 7-1.9 10.3-11.9 15.3-13 8-2 4.8 6 26.3 16.7 7.8 3.6 8.9 4 15 5.2-14.8 7.3-23.8 8.2-38 4"/><path fill="#F1BE48" d="M617.3 41.7c-81 0-146 58.2-185.3 60-16.4.7-36-27-36-27-22.3 16.6-6 47.1-6 47.1-33-24.1-69.9-20.4-69.9-20.4-55 5.4-68.5 45-68.5 45-32.2 12-43.3 29-43.3 29-19.8 14.3-31.3 12.9-31.3 12.9 7.6 41.4 50.8 39.4 50.8 39.4-17 33-72.6 38.1-72.6 38.1 19.8 31.7 67 29 67 29 16.2 1.7 38.1-7 49-12-7.3 3.9-10.7 6.8-10.7 6.8-20.8 14.7-20.3 41.4-31 60.5-4.2 8.5-16.2 12.6-22.8 17.8a88 88 0 0 0 23 8c-.1 13.3 6.3 45.4 10.6 58.3-15.5-11.5-39.5-6.3-39.5-6.3 26.6 33 14 53.5 27.4 84.2 4.5 15.3 18.4 28.4 32.4 37.6a59 59 0 0 0 61.2-5c-4.2 20-41.9 35-41.9 35 8.9 9.7 30.5 17 43.5 17.8 51.1 3.4 53.7-52.3 110.4-46.5 32.9 3.4 63 31 117.9 31 137.2 0 226.4-139 237.2-213.7H633.3s-19 62.4-65.3 62.4c-47.9 0-63-41-63-78 0-56.3 46.7-162.7 123-162.7 35.9 0 41.4 39.5 28.7 76.4h144.8c29.3-126-57-224.7-184.2-224.7M279 354c12.7-4 16.7 14.1 41 21.8 7 3.5 11 4 18.2 7.6-16.7 10.5-32.3 17.4-54.3 11.2-12.5-2.6-18.8-10.2-26.7-20.2l-1-1.7c9.3-3 14.7-13.6 22.8-18.7"/><g fill="#C8102E"><path d="M257.7 207.4c17-3.3 28.3-20.7 46-23.1 9.9-2.5 19.8 1.6 28.4 3-.3-.8-1.4-1.1-1.4-2-18.2-21.2-47.1-33.9-75.5-23.4-23.8 4.4-36.4 31.7-60.7 34.5-.3.8 1.1 1.4 1.1 2.2 14.9 17 43 16 62 8.8m102.2 285.4v-1.2c-29.8-11-51.5 21.6-80.8 4.7-25.9-8.5-26.1-44-52.3-52.6 2.2 6.6 5.2 12.7 6.3 19.6 1.4 28.6 9.1 59.8 35 73.8a44 44 0 0 0 37.2.6c21.3-11 31.5-36.4 54.6-45"/><path d="M617.5 56.7c-75.6-.3-138 60.2-187.2 60.2-12.5 0-23-7.6-30.4-17 2.2 27 27.3 49.6 51.3 58.7-12.2.8-22.6-3.9-33.4-6.3-32.2-8.9-55.1-39.7-92-36.7-26-.8-48.9 14.9-61.5 36.4a46 46 0 0 1 21.7-11c19-3.3 35.6 5.2 48 18.2 15.4 24.5 32.5 48.2 57.9 65.3-18.2 0-34.2-6.9-50.2-12.4-32.8-9.4-71.7-5.2-96.5 18.2a93 93 0 0 1-57.3 42.4v.9l6.9 3c27 11.6 56.8.3 79.4-13.8 15.7-5 34.4-2.2 45.5 10.2 7.7 13.3 22 26.5 34.7 36.1-3.3 1.4-6.6-1.3-10.5-1.3-21.7-10.8-54.6-25.4-76.6-5.3-20.7 15.7-10.2 46-32.3 61 15.5 1.3 24.3-10 33.1-21 22-16.3 36.1 13 53.8 19.8 18.7 9.1 43.5 6.1 57 25.4-14.3 2.8-29 5.3-41.3 12.7a74 74 0 0 1-67.6 3.9 75 75 0 0 1-25.3-23.8q0 .6-.3 1.1c1.4 40.9 16.5 85.2 58.7 99.6 28.7 13.2 59.6-8.3 87.7 5.5a61 61 0 0 0-37.5 24.2c-14.6 19-14.3 45.3-32.5 61.5-3.3 3-8.3 4.7-11.6 7.2q5.3 2.4 11.3 3c20.1 3.3 37.2-9.6 48.5-24.8a86 86 0 0 1 60.7-24c39.7 2.7 69.3 31.6 121.8 31.8 104.5.3 196.7-99.2 216.3-180.8H644.5s-22.4 62.4-76.7 62.4c-67.7 0-79.5-63.2-79.5-94.6 0-73.8 57.8-179.2 139.5-179.2 38.8 0 61.6 39.6 49 77.3h111.4c20.3-91-46.7-193.4-170.7-194"/></g></svg>