<svg xmlns="http://www.w3.org/2000/svg" viewBox="210 -1.2 538.8 641.2"><path fill="#010101" d="M211.3 0v445.8l269 194.2 268.4-194.2V0z"/><path fill="#a2aaad" d="M224.6 13.3V439l255.8 184.6 255-184.6V13.3z"/><path fill="#fff" d="m480.4 608.2 242.5-175.5v-407H237v407l213.6 154zM252.6 40h455.5v268.8H252.6zm0 282.9h455.5v100.3L480.4 587.8l-92-66.5-135.8-98.1z"/><path fill="#a2aaad" d="M267 54.4h426.8v233.3H267z"/><path fill="#010101" d="M267 347.9v68L480.4 570l213.4-154.3v-68zm426.8-60.2V54.4H267v233.3z"/><path fill="#fff" d="m480.4 608.2 242.5-175.5v-407H237v407l213.6 154zM252.6 40h455.5v268.8H252.6zm0 282.9h455.5v100.3L480.4 587.8l-92-66.5-135.8-98.1z"/><g fill="#fff"><path d="M661.8 547.4a5.4 5.4 0 0 0-5.4-5.4h-7.7v18.3h3.4V553h2.5l3.4 7.4h3.8l-3.6-7.7a5.4 5.4 0 0 0 3.6-5.2m-5.4 2H652v-4h4.3a2 2 0 0 1 2 2 2 2 0 0 1-2 2"/><path d="M655.2 535.1a16 16 0 1 0 0 32.1 16 16 0 0 0 0-32m0 28.6a12.6 12.6 0 1 1 0-25.1 12.6 12.6 0 0 1 0 25.1"/></g><path fill="none" d="M655.2 538.6a12.6 12.6 0 1 0 0 25.1 12.6 12.6 0 0 0 0-25.1m6.6 21.7H658l-3.4-7.4H652v7.4h-3.4V542h7.7a5.4 5.4 0 0 1 5.4 5.4 5.4 5.4 0 0 1-3.6 5.2z"/><path fill="none" d="M656.4 545.4H652v4h4.3a2 2 0 0 0 2-2c0-1-.9-2-2-2"/><path fill="#010101" d="M693.8 287.7V54.4H267v233.3zM267 347.9v68L480.4 570l213.4-154.3v-68z"/><path fill="none" d="M708.1 40v268.8zM480.4 587.8l-92-66.5zm213.4-172L480.4 570.1zv-68z"/><path fill="none" d="M252.6 423.2V322.9h455.5v100.3L480.4 587.8 708 423.2V322.9H252.6zl135.8 98.1z"/><rect width="510.7" x="224.6" y="13.3" fill="none"/><path fill="none" d="m463.7 209-6 3.7zM327 95h-41.3zm169.8 76c0-58.6-13.7-79.6-13.7-79.7s13.7 21 13.7 79.8c0 44-7.7 66.8-11.6 75.5 3.9-8.7 11.6-31.5 11.6-75.5m-43.4 79.8H279.8s13.6-21 13.6-79.7-13.6-79.7-13.6-79.8 13.6 21 13.6 79.8-13.6 79.7-13.6 79.7zm-51.8-25.5h-86zm239.9 25.4H681zm-119-59.4v59.4h-39.4 39.5zh118.9zm-3.6-3.7V247zm145.7 9.3"/><rect height="41.9" x="522.6" y="120.4" fill="none"/><path fill="none" d="m667.4 179.2-.1-8.1zm7.6-84.1"/><path fill="#a2aaad" d="M645.2 116.7H518.9V166h126.3zm-3.7 45.6h-119v-42h119z"/><path fill="#a2aaad" d="M401.6 221.7h-82.3v-50.6c0-53.3 11.2-75.5 13.3-79.2l.3-.6h-53.1c0 .1 13.6 21.1 13.6 79.8s-13.6 79.7-13.6 79.7h173.6c.1-.2 14.5-19.8 14.5-49.7-.2.2-20 20.6-66.3 20.6m265.7-50.6q0-9.9.5-18.4c2.4-44.8 13.2-61.4 13.2-61.4H483c.1.1 13.8 21.1 13.8 79.8 0 44-7.7 66.8-11.6 75.5l-2.1 4.2h39.5v-59.4h118.9v59.4H681s-12.4-19.2-13.6-71.6zm-25.8-8.8h-119v-42h119z"/><path fill="#fff" d="M437.5 220.8c-9.7 2.7-21.5 4.6-36 4.6h-86v-54.3c0-19.8 1.6-35.3 3.7-47.3q2.6-14.3 5.3-22.3L327 95h-41.3l2.4 6.5q2.9 8 5.4 22.3c2 12 3.6 27.5 3.6 47.3 0 19.5-1.5 34.9-3.5 46.8q-2.9 15.6-5.8 23.8l-2.1 5.4h165.7c1.2-2 3.5-5.9 5.8-11.5a93 93 0 0 0 5-16.7 92 92 0 0 0 1.5-10l-6 3.8q-7.6 4.3-20.2 8.1m227-23.8a328 328 0 0 1-.2-48.1 186 186 0 0 1 7.9-46q1.5-5 2.8-7.9H489a113 113 0 0 1 6 19 256 256 0 0 1 5.5 57 255 255 0 0 1-5.7 57.5 112 112 0 0 1-5.8 18.6h30v-59.4h126.3V247H675l-2.9-8c-2.8-8.9-6-22.5-7.5-42.1m-19.3-31H518.9v-49.3h126.3zM557 404l-15.2 20.4a54 54 0 0 0-8.9-8.3 69 69 0 0 0-20.2-10.7l4.9-12 1.1-2.8-3 1.3-7.9 3.2.7-1.4-6.2.4-7.3.4-.7-1.3-4.5-8-3-5.2 3.4-6 3.4-3-3.9-7.3-3.8.3-4.4.3v1l-.2 3.5-.6 1-.3.6-.5-.9-.5-.7-.2-4.5-3.5-.3-4.7-.3-1.7 3.3-2.2 4 3.4 3 3.5 6-8.2 14.5-8.2-.5-5.4-.3.5.9.2.5-2.9-1.2-8-3.3 6 14.8a66 66 0 0 0-26.7 16.4l-.1.1-.2.2-2 2.3-.6-.7-14.7-19.8-3.3 1.5 15.8 90.7s22.5 5.8 64.2 5.8 64.1-5.8 64.1-5.8l15.9-90.7-2-.9z"/><g fill="#010101"><path d="M452.9 436.8a5 5 0 0 0-5 5 5 5 0 1 0 10 0 5 5 0 0 0-5-5m54 0a5 5 0 0 0-5.1 5 5 5 0 0 0 5 5 5 5 0 1 0 0-10"/><path d="m541.7 430.3-2.7-3.7-3-3.4v-.1l-3.6-3.2-.1-.1-3.9-2.9-.3-.2-4.5-2.7-5-2.5-5.3-2.2-5-1.7h-.3l2.7-6.5 1.6-3.9-21.9 9.8v-5.4l-10-17.3-10.1 17.3v5.4l-21.8-9.8 2 5 2.2 5.4a65 65 0 0 0-28 15.5 40 40 0 0 0-5.6 7.2L405 411.4l4.8 28.2 9 52.8s18 4.5 48.4 5.3-20.6-1.9-32.8-6.6l4.2.6a311 311 0 0 0 30 2.3s-8.5-1-17.4-3q-5.5-1.2-10.4-3 4.3.6 9.6 1.1a215 215 0 0 0 21.7 1.3s-16.3-1.7-27.4-5.7l9.3-1.8a170 170 0 0 1 62 1.8c-11 4-27.4 5.7-27.4 5.7 7.4 0 15.2-.6 22-1.3l9.3-1.1a82 82 0 0 1-10.6 3 167 167 0 0 1-17.2 3q8.2-.1 16.2-.8a315 315 0 0 0 18-2c-12.2 4.6-32.8 6.5-32.8 6.5a248 248 0 0 0 48.3-5.3l14-81zm-51.2 15.2V409l6.3-2.9 12-5.4-12.2 29.9zm16-34.4c10.3 3 19.1 7.8 25.4 13.6q4.6 4.2 7.2 9l-3.5 4.7-.3.4a37 37 0 0 0-9.5-11.8l-1.6-1.3-1.2-.9-.5-.3-1-.7-.6-.4-1.1-.6-.6-.3-1-.5q-.3 0-.5-.3l-1-.4-.6-.3-1-.4-.4-.1-1.1-.4-.3-.1-1.1-.4h-.1c-2.8-1-4.7-1.1-4.8-1.2q6.8 2.6 11.4 5.9 8.5 6 11.5 13.1a30 30 0 0 1 2 5.6l-3.6 4.8s.4 13-2.2 18.3l-1.6-.5-1.2-.4a38 38 0 0 0-1.4-26.5l-1-2-1-1.3-.3-.6-1-1.2-.4-.5-1-1q0-.3-.3-.5l-1.1-1-.4-.3-1.1-.9-.3-.2-1.2-.9-.2-.1-1.2-.8-.2-.1-1.3-.7c-3-1.6-5.2-2.1-5.3-2.2 19.1 10 17.4 27.5 13.5 39.1l-3-.7-2.3-.6-2-10-.7-3.1a6 6 0 0 0 4.6-6q-.2-3.5-3-5.3l-.8-1-1.5-1a7 7 0 0 0-2.9-.6c-3.6 0-6.6 3-6.6 6.6q.1 3 2.3 4.9l1 .8-6.7 12.1-3.2-.2-3.6-.3-3.1-.2zm.3 36.4a5.7 5.7 0 0 1-5.6-5.7c0-3.1 2.5-5.7 5.6-5.7a5.7 5.7 0 0 1 0 11.4m-26.4-50 8.2 10.7-8.2 9.8-8.3-9.8zm-28.5 3.2 16.5 7.4 1.9.9v36.5l-1.4-3.2zm-30.3 33a37 37 0 0 1 8-9.8 65 65 0 0 1 24.6-12.8l19.6 47.8-9.8.7-.2-.2-6-10.9a6 6 0 0 0 3.3-5.5q0-1.6-.8-3a6 6 0 0 0-2.1-2.2 7 7 0 0 0-5.3-2.6q-2.6 0-4.4 1.7a7 7 0 0 0-1.5 7.8 7 7 0 0 0 3.5 3.3l-2.9 14.2-.4.1-4.8 1.2-.6-1.7c-2-7-3.2-15.8.3-23.7 2.3-5.2 6.5-10 13.7-13.7 0 0-1.4.4-3.3 1.2l-1.2.6h-.2l-1.1.7-.3.1-1.2.7-.3.2-1.2.8-.3.3-1.2.9-.3.3-1.2 1-.3.4-1.2 1.2-.3.4-1 1.3-.4.5-1 1.4-.3.6-1 1.6-1 2.4c-2.2 5.9-3 13.7-.4 24.2l-2.8 1a24 24 0 0 1-1.7-7c-.6-5.5-.4-11.4-.4-11.4L430 445l-1.4-1.9v-.1c2-8 7.2-16 18.9-21.9l6-2.6c-.1 0-2.7.3-6.3 1.6h-.2l-3.8 1.6-.2.2h-.1a38 38 0 0 0-17.5 17l-3.4-4.6zm35 12.4a5.6 5.6 0 0 1-9.4-4.3c0-3.1 2.6-5.7 5.7-5.7a6 6 0 0 1 2.3.5q3.2 1.6 3.4 5.2-.1 2.6-2 4.3m-41.7 12.5-.8-4.8h.6q1 0 1.8.8.5.6.6 1.6-.2 2.1-2.2 2.4m.8 4.6-.1-.9q2.2-.3 3.6-2.3a6 6 0 0 0 1.3-3.8q-.1-2.3-1.4-4a6 6 0 0 0-4.4-2.2l-1.2.2-.2-1 1.4-.1c3.7 0 6.7 3.1 6.7 7a7 7 0 0 1-5.7 7.1m130.3-6-.2 1.4a2.4 2.4 0 0 1-2.1-2.4q0-1.5 1.2-2.1l1-.4.7.1zm1.4-8-.1 1-1.3-.2q-1.2 0-2.2.5c-2 1-3.5 3.1-3.5 5.7a6 6 0 0 0 4.9 6.1l-.1.4v.5a6 6 0 0 1-2.3-.8 7 7 0 0 1-3.4-6.2c0-4 3-7.1 6.6-7.1h.5zm5.3-30.6-5.1 29.8-.5-.1-1.1-.1a8 8 0 0 0-7.6 8 8 8 0 0 0 2.1 5.4 8 8 0 0 0 4.4 2.5l-3 17.4-1.5 8.4q-2.8-1.1-8.7-3a179 179 0 0 0-18-4.5 173 173 0 0 0-85.5 4.7l-7.9 2.8-3.3-19-1.1-6.8a8 8 0 0 0 5.4-4 8 8 0 0 0 1-4q-.1-3.3-2.2-5.6a7 7 0 0 0-5.4-2.3h-1l-.5.2-5.2-29.8 22.3 29.8q-.1 7.4.7 11.9c.9 5.7 2.4 8.2 2.4 8.2s3.2-1.4 7.8-2.7l8-2 2-10.3 1-4.8.8.3q.9.3 1.9.3l1.2-.1 2.3 4 4.5 8.3 5.7-.4c2.8-.2 6-.4 8.2-.4l-4.1-12.9 2.8-7.2 4.9-12.6 7 18.2.7 1.6-4.2 12.9a134 134 0 0 1 13.9.9l7.3-13.4h.1l1.6.8 1.8.3 3 14.4 7.3 1.9c5 1.4 8.5 2.9 8.5 2.9 0-.1 2.7-4.6 3-15.4v-4.7l10.7-14.3z"/><path d="m469.5 401 .4-.8 10.5-18 4 7 6.9 11.8h8.6l1-2h-8.6l-10.8-18.7 5.4-9.1 1.2-1.3v-.2l-.9-1.1H486l-.7.1-.1.4-.3 1.2-4.5 8-2.3-4-2.3-4-.3-1.6h-.8l-1.2-.1-.2.3-.7 1 .2.2 1.1 1 2.3 4 3 5.2-10.8 18.6h-8.6l1 2zm-2 67-.2-.2.2.4q.5.7.5 1.6a3.3 3.3 0 0 1-3.3 3.3l.3.2.5.1h.5a3 3 0 0 0 1.5-5.5m-25.9 4.3.5 1v.1l.2 1q0 1-.7 2-1 1.3-2.6 1.3l1.3.3a3 3 0 0 0 3-3 3 3 0 0 0-1.7-2.7m55.2-4.5.3.5q.4.8.4 1.5a3 3 0 0 1-1.5 2.8 3 3 0 0 1-1.8.5l.3.2.5.1h.4l1.1-.1a3 3 0 0 0 2-2.9 3 3 0 0 0-1.7-2.6m25.7 4.5.3.6q.4.7.4 1.5c0 1.8-1.4 3.3-3.3 3.3l.5.2.8.1q1.6-.1 2.5-1.4.5-.7.5-1.6a3 3 0 0 0-.5-1.6zm-39.7-27.5.1.1q.6.9.6 1.9c0 1.8-1.4 3.3-3.2 3.3a3 3 0 0 0 2.4 0h.1a3 3 0 0 0 1.7-2.7 3 3 0 0 0-1.7-2.6m-2.6 5.3"/><path d="M467.4 469.8c0-1.5-1.2-2.7-2.7-2.7a2.7 2.7 0 0 0-2.7 2.7 2.7 2.7 0 0 0 2.7 2.7 2.7 2.7 0 0 0 2.7-2.7m-28.4 7.3 1.2-.3q1.4-.8 1.5-2.4-.2-2.3-2.4-2.6h-.3a3 3 0 0 0-2.7 2.6c0 1.4 1.2 2.7 2.7 2.7m56.2-4.8a3 3 0 0 0 1.7-2.5q-.1-1.6-1.4-2.2-.6-.5-1.3-.5-1.1 0-2 .8a3 3 0 0 0-.7 1.9q0 .6.2 1a3 3 0 0 0 2.5 1.7zM520 477c1.5 0 2.7-1.3 2.7-2.7a2.7 2.7 0 0 0-2.7-2.7 2.7 2.7 0 0 0-2.7 2.7c0 1.4 1.2 2.7 2.7 2.7m-38.7-27.8a3 3 0 0 0 1.7-2.5 2.7 2.7 0 1 0-3.7 2.5 3 3 0 0 0 2 0m-65.9-6.1-.8 1.7-1 2.2 1.5.1h1.8l-.4-1zm3 4.6 1.2.8 1.5 1 1-4.3h-.2zm5.2 6 3-3.3-4.4.3zm.3 1.5-.2 2.2-.1 1.1 4.2-1.3zm-.7 4.4-1.8 2.8 4.3.8-1.2-1.8zm-3.3 4-1.5.7-1.5.6.5.5 2.6 2.6zM547.3 447l-1.5-3.3-.3-.7-.2.5-1.2 3.7zm-8.4-1.8 1 4.3 1-.7 1.6-1-2-1.5zm-1.6 8.4 1.2-2.4.3-.5-4.5-.3zm-.2 1.6-4 2 4.2 1.3zm-2 8 4.4-.8-1.8-2.8zm9 1.7-.7-.3-2.3-1-.2 4.5 1.3-1.3zM483.7 408a3.5 3.5 0 0 0-3.4-3.5 3.5 3.5 0 0 0-3.5 3.5c0 1.8 1.6 3.4 3.5 3.4s3.4-1.6 3.4-3.4m-3.4 3a3 3 0 0 1-2-1 3 3 0 0 1-1-2 3 3 0 0 1 3-3 3 3 0 0 1 3 3 3 3 0 0 1-1 2.2 3 3 0 0 1-2 .7m17 6.5 1-.2h.2a3 3 0 0 0 1.6-1.7l.3-1.2v-.1a3 3 0 0 0-1.5-2.8l-1.1-.9a3 3 0 0 0-1.6-.4q-.8 0-1.4.3a3 3 0 0 0-2 3.1 3.4 3.4 0 0 0 2.5 3.3l.4.2q.8.4 1.5.4m-4-3.9a3 3 0 0 1 2.9-3 3 3 0 0 1 2.9 3 3 3 0 0 1-3 3 3 3 0 0 1-2.9-3m-27.7-2-.2-.2a3 3 0 0 0-2.5-1.2q-.9 0-1.6.4-1.8.9-1.9 3 0 2 1.8 3l.8.3a3 3 0 0 0 1.9.6l1.2-.2h.1a3 3 0 0 0 2-3 3 3 0 0 0-1.6-2.8m.2 2c0 1.6-1.3 3-3 3s-2.9-1.4-2.9-3 1.3-3 3-3 3 1.4 3 3"/><path d="M480.4 405.3a2.6 2.6 0 0 0-2.6 2.6 2.6 2.6 0 0 0 2.6 2.6c1.4 0 2.6-1.2 2.6-2.6a2.6 2.6 0 0 0-2.6-2.6m15.9 5.6c-1.5 0-2.7 1.2-2.7 2.6s1.2 2.6 2.7 2.6a2.6 2.6 0 0 0 0-5.2m-33.3 0c-1.5 0-2.6 1.2-2.6 2.6s1.1 2.6 2.6 2.6 2.6-1.1 2.6-2.6-1.2-2.6-2.6-2.6"/></g><g fill="#a2aaad"><path d="M470.3 445.5V409l-1.9-.9-16.5-7.4 17 41.6zm-3-31.2a3 3 0 0 1-1.1 2.2l-.9.6-.1.1-1.2.2a3 3 0 0 1-1.9-.6q-.4 0-.8-.3-1.7-1-1.8-3 .1-2.1 2-3 .7-.4 1.5-.4a3 3 0 0 1 2.5 1.2l.2.1a3 3 0 0 1 1.5 2.8m41.6-13.6-12.1 5.4-6.3 2.9v36.5l6-15zm-13.5 16.2-1-.5a3 3 0 0 1-1.6-2.9 3.4 3.4 0 0 1 3.5-3.4 3 3 0 0 1 1.6.4q.6.3 1.1 1a3 3 0 0 1 1.5 2.7 3 3 0 0 1-.8 2.2l-1 .7-.2.1-1.2.2a3 3 0 0 1-1.5-.4zm-6.8-8.7-8.2-10.7-8.3 10.7 8.3 9.7zm-8.2 3a3.4 3.4 0 0 1-3.5-3.3 3.5 3.5 0 0 1 3.5-3.5 3.5 3.5 0 0 1 3.4 3.5c0 1.8-1.5 3.4-3.4 3.4"/><path d="m541 434.1-10.6 14.3v4.7a34 34 0 0 1-3 15.4s-3.6-1.5-8.5-2.9l-7.3-1.9-3-14.4-1.8-.3-1.6-.8-7.4 13.3-5-.4-8.9-.4 4.1-12.9-.6-1.6-7-18.2-5 12.6-2.7 7.2 4.1 12.9c-2.2 0-5.4.2-8.2.4l-5.7.5-4.5-8.4-2.3-4-1.2.1q-1 0-2-.3l-.7-.3-1 4.8-2 10.2-8 2c-4.6 1.4-7.8 2.8-7.8 2.8s-1.5-2.5-2.4-8.2q-.8-4.5-.7-12L408 418.7l5.2 29.8.4-.1 1.1-.1q3.2.1 5.4 2.3a8 8 0 0 1 2.2 5.7 8 8 0 0 1-1 4 8 8 0 0 1-5.4 4l1.1 6.7 3.3 19 7.9-2.8a173 173 0 0 1 85.6-4.8 179 179 0 0 1 17.9 4.6q6 1.9 8.7 3l1.5-8.4 3-17.4-1.3-.3a8 8 0 0 1-3-2.2 8 8 0 0 1-2.2-5.4c0-4.4 3.4-8 7.6-8h1l.6.2 5-29.8zm-121 34-2.7-2.6-.5-.5 1.5-.6 1.5-.7zm-3.2-20.8-1.8-.1h-1.5l1-2.3.8-1.8 1.1 3.1zm4.2 2.3-1.5-1-1.2-.8 3.5-2.4.1-.1zm1 1.2 4.5-.3-3 3.2zm-.7 11.7 1.8-2.8 1.3 1.8 1.3 1.8zm2.2-3.9.1-1.1.2-2.2 4 2zm12.8 15.8c0-1.5 1.2-2.7 2.7-2.7h.3a2.6 2.6 0 0 1 1 5q-.6.4-1.3.4a2.7 2.7 0 0 1-2.7-2.7m4 3.7-.6-.1-.8-.3h.1q1.6 0 2.6-1.3.7-1 .7-2l-.1-1v-.2l-.6-.9a3 3 0 0 1-1.3 5.7m21.7-8.3a2.7 2.7 0 0 1 2.7-2.7c1.5 0 2.7 1.2 2.7 2.7a2.7 2.7 0 0 1-2.7 2.7 2.7 2.7 0 0 1-2.7-2.7m4 3.7h-.5l-.5-.2-.4-.2a3.3 3.3 0 0 0 3.4-3.3q0-.9-.5-1.6l-.2-.4.2.1a3 3 0 0 1 1.5 2.5 3 3 0 0 1-3 3m11.5-26.7c0-1.5 1.2-2.7 2.7-2.7s2.7 1.2 2.7 2.7a2.7 2.7 0 0 1-2.7 2.7q-.6 0-1-.2a3 3 0 0 1-1.7-2.5m5.3 3.3h-.1l-1.2.3q-.7 0-1.2-.3h-.1c1.9 0 3.3-1.5 3.3-3.3q0-1-.6-1.9v-.1a3 3 0 0 1 1.6 2.6 3 3 0 0 1-1.7 2.7m9 20.8-.3-1.1q0-1.1.8-1.9a3 3 0 0 1 1.9-.8q.8 0 1.3.5 1.3.6 1.4 2.2a3 3 0 0 1-1.7 2.5l-1 .2a3 3 0 0 1-2.5-1.6m4.7 2.4-1 .2h-.5l-.5-.2-.4-.2a3.3 3.3 0 0 0 3.4-3.3q0-.8-.4-1.5l-.3-.5a3 3 0 0 1 1.7 2.6 3 3 0 0 1-2 2.9m20.7 1c0-1.4 1.2-2.6 2.7-2.6a2.6 2.6 0 0 1 2.7 2.7c0 1.4-1.2 2.7-2.7 2.7a2.7 2.7 0 0 1-2.7-2.7m6.5 2.3a3 3 0 0 1-2.5 1.5l-.8-.2-.5-.2a3.2 3.2 0 0 0 2.9-4.8l-.3-.6q.8.5 1.2 1.1.5.7.5 1.6a3 3 0 0 1-.5 1.6m17.3-12.9 2.3 1 .6.3-1.9 2-1.2 1.2zm-8-6.4 4-2 .2 3.3zm6.4 5.2-4.3.8 2.5-3.6zm-1-11.2-1.1 2.4-3-3.2 4.4.3zm2.4-2.4-1 .7-1-4.3 1.6 1.1 2 1.4zm6.4-1.8-3.2.2 1.2-3.7.2-.5.3.7z"/></g></svg>