<svg xmlns="http://www.w3.org/2000/svg" viewBox="0 0 120 160" role="img"><title>Art Ross Trophy</title><defs><linearGradient id="fall" x1="0" y1="0" x2="0" y2="1"><stop offset="0" stop-color="#000000" stop-opacity="0"/><stop offset="1" stop-color="#000000" stop-opacity="0.28"/></linearGradient><linearGradient id="ag"><stop offset="0" stop-color="#1b2029"/><stop offset="0.07" stop-color="#3a4250"/><stop offset="0.2" stop-color="#a3aebd"/><stop offset="0.3" stop-color="#e9eff6"/><stop offset="0.36" stop-color="#ffffff"/><stop offset="0.45" stop-color="#b9c3cf"/><stop offset="0.6" stop-color="#6d788a"/><stop offset="0.8" stop-color="#343c49"/><stop offset="0.92" stop-color="#252b35"/><stop offset="1" stop-color="#8796ad"/></linearGradient><linearGradient id="cap_ag" x1="0" y1="0" x2="0" y2="1"><stop offset="0" stop-color="#6d788a"/><stop offset="0.55" stop-color="#a3aebd"/><stop offset="1" stop-color="#ffffff"/></linearGradient><clipPath id="c1"><path d="M90 16C90 16 89.2 16.7 89 18C88.8 19.3 89.4 21.3 88.6 24C87.8 26.7 86.1 31.2 84 34C81.9 36.8 78.4 39.1 76 41C73.6 42.9 69.5 45.5 69.5 45.5A9.5 1.6 0 0 1 50.5 45.5C50.5 45.5 46.4 42.9 44 41C41.6 39.1 38.1 36.8 36 34C33.9 31.2 32.2 26.7 31.4 24C30.6 21.3 31.2 19.3 31 18C30.8 16.7 30 16 30 16A30 5.1 0 0 1 90 16Z"/></clipPath><linearGradient id="in_ag" x1="0" y1="0" x2="1" y2="0"><stop offset="0" stop-color="#5d6878"/><stop offset="0.45" stop-color="#151a21"/><stop offset="1" stop-color="#9aa6b6"/></linearGradient></defs><path d="M69.6 157.6L105 148.4L105 154.4L69.6 163.6Z" fill="#311f14"/><path d="M69.6 157.6L105 148.4L105 154.4L69.6 163.6Z" fill="url(#fall)"/><path d="M15 151.6L69.6 157.6L69.6 163.6L15 157.6Z" fill="#593a26"/><path d="M15 151.6L69.6 157.6L69.6 163.6L15 157.6Z" fill="url(#fall)"/><path d="M69.6 157.6L69.6 163.6" fill="none" stroke="#8a6248" stroke-width="0.4" opacity="0.28"/><path d="M15 151.6L15 157.6" fill="none" stroke="#8a6248" stroke-width="0.4" opacity="0.28"/><path d="M69.6 157.6L105 148.4" fill="none" stroke="#8a6248" stroke-width="0.45" opacity="0.364085"/><path d="M15 151.6L69.6 157.6" fill="none" stroke="#8a6248" stroke-width="0.45" opacity="0.762985"/><path d="M65.2 70.2L84.5 65.1L102.1 148.5L68.9 157.2Z" fill="#311f14"/><path d="M65.2 70.2L84.5 65.1L102.1 148.5L68.9 157.2Z" fill="url(#fall)"/><ellipse cx="70" cy="80.1" rx="2.7" ry="5.1" fill="#000000" opacity="0.45"/><ellipse cx="70" cy="80.1" rx="2.3" ry="4.8" fill="#4a525e"/><ellipse cx="69.4" cy="78.7" rx="1" ry="1.7" fill="#a4a8ae" opacity="0.55"/><ellipse cx="76.2" cy="78.5" rx="2.7" ry="5.1" fill="#000000" opacity="0.45"/><ellipse cx="76.2" cy="78.5" rx="2.3" ry="4.7" fill="#4a525e"/><ellipse cx="75.6" cy="77.1" rx="1" ry="1.7" fill="#a4a8ae" opacity="0.55"/><ellipse cx="82.4" cy="76.9" rx="2.7" ry="5" fill="#000000" opacity="0.45"/><ellipse cx="82.4" cy="76.9" rx="2.3" ry="4.7" fill="#4a525e"/><ellipse cx="81.8" cy="75.5" rx="1" ry="1.6" fill="#a4a8ae" opacity="0.55"/><ellipse cx="71.5" cy="99.1" rx="3" ry="5.1" fill="#000000" opacity="0.45"/><ellipse cx="71.5" cy="99.1" rx="2.6" ry="4.8" fill="#4a525e"/><ellipse cx="70.8" cy="97.6" rx="1.2" ry="1.7" fill="#a4a8ae" opacity="0.55"/><ellipse cx="78.5" cy="97.2" rx="3" ry="5.1" fill="#000000" opacity="0.45"/><ellipse cx="78.5" cy="97.2" rx="2.6" ry="4.7" fill="#4a525e"/><ellipse cx="77.9" cy="95.8" rx="1.2" ry="1.7" fill="#a4a8ae" opacity="0.55"/><ellipse cx="85.6" cy="95.4" rx="3" ry="5" fill="#000000" opacity="0.45"/><ellipse cx="85.6" cy="95.4" rx="2.6" ry="4.7" fill="#4a525e"/><ellipse cx="84.9" cy="94" rx="1.2" ry="1.6" fill="#a4a8ae" opacity="0.55"/><ellipse cx="72" cy="119.2" rx="3.3" ry="5.1" fill="#000000" opacity="0.45"/><ellipse cx="72" cy="119.2" rx="3" ry="4.8" fill="#4a525e"/><ellipse cx="71.2" cy="117.7" rx="1.3" ry="1.7" fill="#a4a8ae" opacity="0.55"/><ellipse cx="78" cy="117.6" rx="3.3" ry="5.1" fill="#000000" opacity="0.45"/><ellipse cx="78" cy="117.6" rx="3" ry="4.7" fill="#4a525e"/><ellipse cx="77.2" cy="116.2" rx="1.3" ry="1.7" fill="#a4a8ae" opacity="0.55"/><ellipse cx="84" cy="116" rx="3.3" ry="5.1" fill="#000000" opacity="0.45"/><ellipse cx="84" cy="116" rx="3" ry="4.7" fill="#4a525e"/><ellipse cx="83.2" cy="114.6" rx="1.3" ry="1.6" fill="#a4a8ae" opacity="0.55"/><ellipse cx="90" cy="114.5" rx="3.3" ry="5" fill="#000000" opacity="0.45"/><ellipse cx="90" cy="114.5" rx="3" ry="4.7" fill="#4a525e"/><ellipse cx="89.2" cy="113.1" rx="1.3" ry="1.6" fill="#a4a8ae" opacity="0.55"/><ellipse cx="73.5" cy="139.9" rx="3.7" ry="5.1" fill="#000000" opacity="0.45"/><ellipse cx="73.5" cy="139.9" rx="3.4" ry="4.8" fill="#4a525e"/><ellipse cx="72.6" cy="138.5" rx="1.5" ry="1.7" fill="#a4a8ae" opacity="0.55"/><ellipse cx="80.2" cy="138.2" rx="3.7" ry="5.1" fill="#000000" opacity="0.45"/><ellipse cx="80.2" cy="138.2" rx="3.4" ry="4.7" fill="#4a525e"/><ellipse cx="79.3" cy="136.7" rx="1.5" ry="1.7" fill="#a4a8ae" opacity="0.55"/><ellipse cx="86.9" cy="136.4" rx="3.7" ry="5.1" fill="#000000" opacity="0.45"/><ellipse cx="86.9" cy="136.4" rx="3.4" ry="4.7" fill="#4a525e"/><ellipse cx="86.1" cy="135" rx="1.5" ry="1.6" fill="#a4a8ae" opacity="0.55"/><ellipse cx="93.6" cy="134.6" rx="3.7" ry="5" fill="#000000" opacity="0.45"/><ellipse cx="93.6" cy="134.6" rx="3.4" ry="4.7" fill="#4a525e"/><ellipse cx="92.8" cy="133.2" rx="1.5" ry="1.6" fill="#a4a8ae" opacity="0.55"/><path d="M35.5 66.9L65.2 70.2L68.9 157.2L17.9 151.5Z" fill="#593a26"/><path d="M35.5 66.9L65.2 70.2L68.9 157.2L17.9 151.5Z" fill="url(#fall)"/><ellipse cx="40" cy="78.4" rx="3.9" ry="5.1" fill="#000000" opacity="0.45"/><ellipse cx="40" cy="78.4" rx="3.6" ry="4.7" fill="#727d8b"/><ellipse cx="39.1" cy="77" rx="1.6" ry="1.7" fill="#b8bec5" opacity="0.55"/><ellipse cx="49.5" cy="79.5" rx="3.9" ry="5.1" fill="#000000" opacity="0.45"/><ellipse cx="49.5" cy="79.5" rx="3.6" ry="4.8" fill="#727d8b"/><ellipse cx="48.6" cy="78" rx="1.6" ry="1.7" fill="#b8bec5" opacity="0.55"/><ellipse cx="59" cy="80.5" rx="3.9" ry="5.2" fill="#000000" opacity="0.45"/><ellipse cx="59" cy="80.5" rx="3.6" ry="4.8" fill="#727d8b"/><ellipse cx="58.1" cy="79.1" rx="1.6" ry="1.7" fill="#b8bec5" opacity="0.55"/><ellipse cx="37.1" cy="97.1" rx="4.4" ry="5.1" fill="#000000" opacity="0.45"/><ellipse cx="37.1" cy="97.1" rx="4.1" ry="4.7" fill="#727d8b"/><ellipse cx="36.1" cy="95.7" rx="1.8" ry="1.7" fill="#b8bec5" opacity="0.55"/><ellipse cx="48" cy="98.3" rx="4.4" ry="5.1" fill="#000000" opacity="0.45"/><ellipse cx="48" cy="98.3" rx="4.1" ry="4.8" fill="#727d8b"/><ellipse cx="46.9" cy="96.9" rx="1.8" ry="1.7" fill="#b8bec5" opacity="0.55"/><ellipse cx="58.8" cy="99.5" rx="4.4" ry="5.2" fill="#000000" opacity="0.45"/><ellipse cx="58.8" cy="99.5" rx="4.1" ry="4.8" fill="#727d8b"/><ellipse cx="57.8" cy="98.1" rx="1.8" ry="1.7" fill="#b8bec5" opacity="0.55"/><ellipse cx="32.5" cy="116.5" rx="5" ry="5.1" fill="#000000" opacity="0.45"/><ellipse cx="32.5" cy="116.5" rx="4.6" ry="4.7" fill="#727d8b"/><ellipse cx="31.4" cy="115.1" rx="2.1" ry="1.7" fill="#b8bec5" opacity="0.55"/><ellipse cx="41.8" cy="117.6" rx="5" ry="5.1" fill="#000000" opacity="0.45"/><ellipse cx="41.8" cy="117.6" rx="4.6" ry="4.7" fill="#727d8b"/><ellipse cx="40.6" cy="116.1" rx="2.1" ry="1.7" fill="#b8bec5" opacity="0.55"/><ellipse cx="51" cy="118.6" rx="5" ry="5.1" fill="#000000" opacity="0.45"/><ellipse cx="51" cy="118.6" rx="4.6" ry="4.8" fill="#727d8b"/><ellipse cx="49.8" cy="117.2" rx="2.1" ry="1.7" fill="#b8bec5" opacity="0.55"/><ellipse cx="60.2" cy="119.6" rx="5" ry="5.2" fill="#000000" opacity="0.45"/><ellipse cx="60.2" cy="119.6" rx="4.6" ry="4.8" fill="#727d8b"/><ellipse cx="59.1" cy="118.2" rx="2.1" ry="1.7" fill="#b8bec5" opacity="0.55"/><ellipse cx="29.2" cy="137" rx="5.5" ry="5.1" fill="#000000" opacity="0.45"/><ellipse cx="29.2" cy="137" rx="5.2" ry="4.7" fill="#727d8b"/><ellipse cx="27.9" cy="135.5" rx="2.3" ry="1.7" fill="#b8bec5" opacity="0.55"/><ellipse cx="39.5" cy="138.1" rx="5.5" ry="5.1" fill="#000000" opacity="0.45"/><ellipse cx="39.5" cy="138.1" rx="5.2" ry="4.7" fill="#727d8b"/><ellipse cx="38.2" cy="136.7" rx="2.3" ry="1.7" fill="#b8bec5" opacity="0.55"/><ellipse cx="49.9" cy="139.2" rx="5.5" ry="5.1" fill="#000000" opacity="0.45"/><ellipse cx="49.9" cy="139.2" rx="5.2" ry="4.8" fill="#727d8b"/><ellipse cx="48.6" cy="137.8" rx="2.3" ry="1.7" fill="#b8bec5" opacity="0.55"/><ellipse cx="60.2" cy="140.4" rx="5.5" ry="5.2" fill="#000000" opacity="0.45"/><ellipse cx="60.2" cy="140.4" rx="5.2" ry="4.8" fill="#727d8b"/><ellipse cx="59" cy="138.9" rx="2.3" ry="1.7" fill="#b8bec5" opacity="0.55"/><path d="M65.2 70.2L68.9 157.2" fill="none" stroke="#8a6248" stroke-width="0.4" opacity="0.28"/><path d="M35.5 66.9L17.9 151.5" fill="none" stroke="#8a6248" stroke-width="0.4" opacity="0.28"/><path d="M65.2 70.2L84.5 65.1L54.8 61.8L35.5 66.9Z" fill="#6e4a32"/><path d="M65.2 70.2L84.5 65.1" fill="none" stroke="#8a6248" stroke-width="0.45" opacity="0.364085"/><path d="M35.5 66.9L65.2 70.2" fill="none" stroke="#8a6248" stroke-width="0.45" opacity="0.762985"/><path d="M64.8 65.8L82.5 61.2L82.5 65.2L64.8 69.8Z" fill="#311f14"/><path d="M64.8 65.8L82.5 61.2L82.5 65.2L64.8 69.8Z" fill="url(#fall)"/><path d="M37.5 62.8L64.8 65.8L64.8 69.8L37.5 66.8Z" fill="#593a26"/><path d="M37.5 62.8L64.8 65.8L64.8 69.8L37.5 66.8Z" fill="url(#fall)"/><path d="M64.8 65.8L64.8 69.8" fill="none" stroke="#8a6248" stroke-width="0.4" opacity="0.28"/><path d="M37.5 62.8L37.5 66.8" fill="none" stroke="#8a6248" stroke-width="0.4" opacity="0.28"/><path d="M64.8 65.8L82.5 61.2L55.2 58.2L37.5 62.8Z" fill="#6e4a32"/><path d="M64.8 65.8L82.5 61.2" fill="none" stroke="#8a6248" stroke-width="0.45" opacity="0.364085"/><path d="M37.5 62.8L64.8 65.8" fill="none" stroke="#8a6248" stroke-width="0.45" opacity="0.762985"/><path d="M66 51C66 51 67.2 52.8 68.5 54C69.8 55.2 72.7 56.9 74 58C75.3 59.1 76.5 60.5 76.5 60.5C76.5 60.5 76.5 62.6 76.5 62.6A16.5 2.8 0 0 1 43.5 62.6C43.5 62.6 43.5 60.5 43.5 60.5C43.5 60.5 44.7 59.1 46 58C47.3 56.9 50.2 55.2 51.5 54C52.8 52.8 54 51 54 51A6 1 0 0 1 66 51Z" fill="url(#ag)"/><ellipse cx="60" cy="51" rx="6" ry="1" fill="url(#cap_ag)"/><path d="M76 59.8A16 2.7 0 0 1 44 59.8" fill="none" stroke="#0b0e13" stroke-width="0.55" opacity="0.55"/><path d="M76 60.3A16 2.7 0 0 1 44 60.3" fill="none" stroke="#ffffff" stroke-width="0.35" opacity="0.33"/><path d="M69 45C69 45 66.4 46.9 66 48C65.6 49.1 66.4 51.4 66.4 51.4A6.4 1.1 0 0 1 53.6 51.4C53.6 51.4 54.4 49.1 54 48C53.6 46.9 51 45 51 45A9 1.5 0 0 1 69 45Z" fill="url(#ag)"/><path d="M90 16C90 16 89.2 16.7 89 18C88.8 19.3 89.4 21.3 88.6 24C87.8 26.7 86.1 31.2 84 34C81.9 36.8 78.4 39.1 76 41C73.6 42.9 69.5 45.5 69.5 45.5A9.5 1.6 0 0 1 50.5 45.5C50.5 45.5 46.4 42.9 44 41C41.6 39.1 38.1 36.8 36 34C33.9 31.2 32.2 26.7 31.4 24C30.6 21.3 31.2 19.3 31 18C30.8 16.7 30 16 30 16A30 5.1 0 0 1 90 16Z" fill="url(#ag)"/><g clip-path="url(#c1)" fill="none" stroke-linecap="round"><path d="M30.6 30c1.5-4 6-4 6 0s-3 5-6 3M33.6 37c2-3 5-2 4 1M37.2 30c1.5-4 6-4 6 0s-3 5-6 3M40.2 37c2-3 5-2 4 1M43.8 30c1.5-4 6-4 6 0s-3 5-6 3M46.8 37c2-3 5-2 4 1M50.4 30c1.5-4 6-4 6 0s-3 5-6 3M53.4 37c2-3 5-2 4 1M57 30c1.5-4 6-4 6 0s-3 5-6 3M60 37c2-3 5-2 4 1M63.6 30c1.5-4 6-4 6 0s-3 5-6 3M66.6 37c2-3 5-2 4 1M70.2 30c1.5-4 6-4 6 0s-3 5-6 3M73.2 37c2-3 5-2 4 1M76.8 30c1.5-4 6-4 6 0s-3 5-6 3M79.8 37c2-3 5-2 4 1M83.4 30c1.5-4 6-4 6 0s-3 5-6 3M86.4 37c2-3 5-2 4 1" stroke="#0c1016" stroke-width=".8" opacity=".5"/><path d="M30.6 30c1.5-4 6-4 6 0s-3 5-6 3M33.6 37c2-3 5-2 4 1M37.2 30c1.5-4 6-4 6 0s-3 5-6 3M40.2 37c2-3 5-2 4 1M43.8 30c1.5-4 6-4 6 0s-3 5-6 3M46.8 37c2-3 5-2 4 1M50.4 30c1.5-4 6-4 6 0s-3 5-6 3M53.4 37c2-3 5-2 4 1M57 30c1.5-4 6-4 6 0s-3 5-6 3M60 37c2-3 5-2 4 1M63.6 30c1.5-4 6-4 6 0s-3 5-6 3M66.6 37c2-3 5-2 4 1M70.2 30c1.5-4 6-4 6 0s-3 5-6 3M73.2 37c2-3 5-2 4 1M76.8 30c1.5-4 6-4 6 0s-3 5-6 3M79.8 37c2-3 5-2 4 1M83.4 30c1.5-4 6-4 6 0s-3 5-6 3M86.4 37c2-3 5-2 4 1" stroke="#fff" stroke-width=".4" opacity=".45" transform="translate(-.5 -.4)"/></g><path d="M88.6 23.4A28.6 4.9 0 0 1 31.4 23.4" fill="none" stroke="#0b0e13" stroke-width="0.55" opacity="0.55"/><path d="M88.6 23.9A28.6 4.9 0 0 1 31.4 23.9" fill="none" stroke="#ffffff" stroke-width="0.35" opacity="0.33"/><path d="M76 41A16 2.7 0 0 1 44 41" fill="none" stroke="#0b0e13" stroke-width="0.55" opacity="0.55"/><path d="M76 41.5A16 2.7 0 0 1 44 41.5" fill="none" stroke="#ffffff" stroke-width="0.35" opacity="0.33"/><ellipse cx="60" cy="16" rx="30" ry="5.1" fill="url(#cap_ag)"/><ellipse cx="60" cy="16.1" rx="28.8" ry="4.9" fill="url(#in_ag)"/></svg>